HIERARCHY
ROOT Pelvis
{
	OFFSET 0.000000 0.000000 0.000000
	CHANNELS 6 Xposition Yposition Zposition Xrotation Yrotation Zrotation
	JOINT LeftUpLeg_virtual
	{
		OFFSET 0.000000 0.000000 0.000000
		CHANNELS 3 Xrotation Yrotation Zrotation
		JOINT LeftUpLeg
		{
			OFFSET 18.735201 -5.666702 -4.541200
			CHANNELS 3 Xrotation Yrotation Zrotation
			JOINT LeftLeg
			{
				OFFSET -0.021200 -31.938179 0.493100
				CHANNELS 3 Xrotation Yrotation Zrotation
				JOINT LeftFoot
				{
					OFFSET 0.021200 -31.938179 -4.336299
					CHANNELS 3 Xrotation Yrotation Zrotation
					JOINT LeftToeBase
					{
						OFFSET 0.943001 -26.722000 15.023500
						CHANNELS 3 Xrotation Yrotation Zrotation
						End Site
						{
							OFFSET 0 0 0
						}
					}
				}
			}
		}
	}
	JOINT RightUpLeg_virtual
	{
		OFFSET 0.000000 0.000000 0.000000
		CHANNELS 3 Xrotation Yrotation Zrotation
		JOINT RightUpLeg
		{
			OFFSET -18.735201 -5.666702 -4.541200
			CHANNELS 3 Xrotation Yrotation Zrotation
			JOINT RightLeg
			{
				OFFSET 0.018946 -31.938133 0.493100
				CHANNELS 3 Xrotation Yrotation Zrotation
				JOINT RightFoot
				{
					OFFSET -0.018946 -31.938126 -4.336299
					CHANNELS 3 Xrotation Yrotation Zrotation
					JOINT RightToeBase
					{
						OFFSET -0.943001 -26.722004 15.023500
						CHANNELS 3 Xrotation Yrotation Zrotation
						End Site
						{
							OFFSET 0 0 0
						}
					}
				}
			}
		}
	}
	JOINT Hips_virtual
	{
		OFFSET 0.000000 0.000000 0.000000
		CHANNELS 3 Xrotation Yrotation Zrotation
		JOINT Hips
		{
			OFFSET -0.000000 -0.000000 -0.000000
			CHANNELS 3 Xrotation Yrotation Zrotation
			JOINT Spine
			{
				OFFSET 0.000000 10.199997 -0.299500
				CHANNELS 3 Xrotation Yrotation Zrotation
				JOINT Spine1
				{
					OFFSET 0.000000 11.900002 -1.516600
					CHANNELS 3 Xrotation Yrotation Zrotation
					JOINT Spine2
					{
						OFFSET 0.000000 13.600006 -2.842500
						CHANNELS 3 Xrotation Yrotation Zrotation
						JOINT Neck_virtual
						{
							OFFSET 0.000000 0.000000 0.000000
							CHANNELS 3 Xrotation Yrotation Zrotation
							JOINT Neck
							{
								OFFSET 0.000000 9.624100 -2.890100
								CHANNELS 3 Xrotation Yrotation Zrotation
								JOINT Head
								{
									OFFSET 0.000000 14.068802 -1.351900
									CHANNELS 3 Xrotation Yrotation Zrotation
									End Site
									{
										OFFSET 0 0 0
									}
								}
							}
						}
						JOINT LeftShoulder_virtual
						{
							OFFSET 0.000000 0.000000 0.000000
							CHANNELS 3 Xrotation Yrotation Zrotation
							JOINT LeftShoulder
							{
								OFFSET 15.263000 10.923401 -0.547700
								CHANNELS 3 Xrotation Yrotation Zrotation
								JOINT LeftArm
								{
									OFFSET 25.438599 -2.830597 -13.032500
									CHANNELS 3 Xrotation Yrotation Zrotation
									JOINT LeftForeArm
									{
										OFFSET 29.960503 0.000000 0.000000
										CHANNELS 3 Xrotation Yrotation Zrotation
										JOINT LeftHand
										{
											OFFSET 27.849251 0.000000 0.000000
											CHANNELS 3 Xrotation Yrotation Zrotation
											End Site
											{
												OFFSET 0 0 0
											}
										}
									}
								}
							}
						}
						JOINT RightShoulder_virtual
						{
							OFFSET 0.000000 0.000000 0.000000
							CHANNELS 3 Xrotation Yrotation Zrotation
							JOINT RightShoulder
							{
								OFFSET -15.263000 10.923401 -0.547700
								CHANNELS 3 Xrotation Yrotation Zrotation
								JOINT RightArm
								{
									OFFSET -25.438599 -2.830597 -13.032500
									CHANNELS 3 Xrotation Yrotation Zrotation
									JOINT RightForeArm
									{
										OFFSET -29.960503 0.000000 0.000000
										CHANNELS 3 Xrotation Yrotation Zrotation
										JOINT RightHand
										{
											OFFSET -27.849251 0.000000 0.000000
											CHANNELS 3 Xrotation Yrotation Zrotation
											End Site
											{
												OFFSET 0 0 0
											}
										}
									}
								}
							}
						}
					}
				}
			}
		}
	}
}
MOTION
Frames: 12
Frame Time: 0.03333333
7.434162 69.830818 59.228767 0.000000 0.000000 0.000000 -17.208380 -39.510267 -10.080340 -54.717250 -11.849902 29.456738 70.265407 -11.601470 9.107134 -2.283816 -14.845312 -30.916360 0.000000 0.000000 0.000000 -16.240680 -38.055997 -9.794775 -31.758679 2.019496 -46.499638 85.936518 10.265733 -9.400677 -2.380186 -0.675967 13.132826 0.000000 0.000000 0.000000 -16.303793 -36.693853 -9.272494 -0.984848 -0.036987 -1.547421 26.537708 3.085850 -9.720875 0.535061 0.611300 0.517013 0.000000 0.000000 0.000000 -0.837657 0.132818 0.406517 3.680841 2.538111 -0.903501 0.000000 0.000000 0.000000 -0.153281 0.205385 0.457408 2.221152 -0.267677 -7.866332 -59.862100 1.016339 -43.441287 -176.836535 -70.271076 -176.815006 0.000000 0.000000 0.000000 -0.641439 0.254940 0.517576 1.921838 13.143886 -4.823457 -43.962547 24.988102 83.618188 -177.776615 63.214739 178.522594 0.000000 0.000000 0.000000 
6.514619 70.643608 56.392952 0.000000 0.000000 0.000000 -17.367575 -40.954832 -9.347890 -50.013790 -10.049216 30.960940 61.015972 -11.792128 8.253804 1.277918 -13.946182 -33.687296 0.000000 0.000000 0.000000 -16.770146 -39.379664 -9.374397 -28.542003 -0.895640 -45.736470 85.364237 10.857591 -8.496261 -14.985169 -4.073740 15.286612 0.000000 0.000000 0.000000 -17.259784 -37.895167 -8.705870 -0.862302 -0.732524 -1.398172 24.363705 4.371387 -8.254602 0.706268 1.121062 -0.154721 0.000000 0.000000 0.000000 -0.290169 0.557600 -0.184753 3.795563 2.592727 -1.138343 0.000000 0.000000 0.000000 0.115270 0.725343 -0.127379 2.204655 0.439634 -8.012743 -59.000424 2.472543 -43.936650 -176.545200 -71.234577 -176.644770 0.000000 0.000000 0.000000 -0.263603 0.693018 -0.227935 1.798621 14.355306 -4.508796 -45.118034 24.885555 83.499254 -177.005432 65.162709 178.241641 0.000000 0.000000 0.000000 
5.438336 71.803284 53.387421 0.000000 0.000000 0.000000 -16.085176 -41.160489 -7.896469 -46.695869 -8.155044 30.967272 51.875195 -10.910724 7.236585 4.237389 -12.093798 -33.523323 0.000000 0.000000 0.000000 -16.136604 -39.502908 -8.290087 -24.996114 -4.211321 -43.970292 82.563211 10.823254 -7.258895 -24.835908 -7.912710 17.031712 0.000000 0.000000 0.000000 -16.818687 -38.507121 -7.490668 -0.712335 -1.583459 -1.067719 22.331071 5.593940 -6.958444 0.894569 1.489486 -0.791548 0.000000 0.000000 0.000000 0.222539 0.894179 -0.768906 3.812580 2.621604 -1.350378 0.000000 0.000000 0.000000 0.454410 1.096774 -0.695196 2.127289 1.075791 -7.819300 -58.781059 3.104058 -44.563156 -176.697486 -71.461510 -176.980624 0.000000 0.000000 0.000000 0.235023 1.074629 -0.937064 1.609944 14.882579 -4.941073 -45.757510 24.564507 82.662228 -176.292838 66.404636 177.815314 0.000000 0.000000 0.000000 
4.394977 73.144981 50.151165 0.000000 0.000000 0.000000 -13.931971 -40.489351 -6.159096 -45.315863 -6.695429 29.879708 46.162920 -9.447603 6.526965 4.629823 -9.505820 -31.639048 0.000000 0.000000 0.000000 -14.448567 -38.647290 -6.691520 -22.441620 -7.388050 -41.650504 78.671034 10.160871 -5.784098 -31.233308 -11.430009 18.105819 0.000000 0.000000 0.000000 -15.148017 -38.428823 -5.964038 -0.601271 -1.947875 -0.870003 20.785924 6.531886 -5.970072 1.081010 1.642877 -1.258410 0.000000 0.000000 0.000000 0.611329 1.096716 -1.219485 3.728901 2.646445 -1.550234 0.000000 0.000000 0.000000 0.806159 1.270765 -1.118011 2.015933 1.492318 -7.507929 -59.286418 2.918352 -45.166695 -177.416199 -71.292394 -177.885392 0.000000 0.000000 0.000000 0.752268 1.280464 -1.450674 1.325080 14.739056 -5.819500 -46.952592 24.014040 81.850713 -175.950085 66.876015 177.580834 0.000000 0.000000 0.000000 
3.498353 74.636612 46.757736 0.000000 0.000000 0.000000 -11.379863 -39.007299 -4.447140 -45.868525 -5.311650 28.563329 45.260467 -8.483346 5.754649 2.639848 -7.753791 -30.187947 0.000000 0.000000 0.000000 -12.316041 -37.292078 -5.064945 -21.818957 -10.090078 -39.507604 75.144484 8.871851 -3.844769 -34.008280 -13.995214 18.510977 0.000000 0.000000 0.000000 -12.634352 -37.563609 -4.462097 -0.729472 -1.817834 -0.953137 19.926168 7.012810 -5.367419 1.245936 1.601336 -1.433582 0.000000 0.000000 0.000000 0.845335 1.117778 -1.415686 3.552315 2.671506 -1.764860 0.000000 0.000000 0.000000 1.140184 1.243561 -1.258777 1.897263 1.626048 -7.360962 -60.573362 2.208380 -45.718459 -178.533919 -71.462835 -179.156395 0.000000 0.000000 0.000000 1.138033 1.303249 -1.642105 1.033385 14.122714 -6.745239 -48.826000 23.302773 81.515494 -176.237759 66.913656 177.605928 0.000000 0.000000 0.000000 
2.809953 76.246765 42.886269 0.000000 0.000000 0.000000 -8.893069 -37.134133 -3.050592 -47.837866 -3.661915 27.572511 48.902218 -8.570648 4.712610 -0.947800 -7.586125 -30.177832 0.000000 0.000000 0.000000 -9.959723 -35.877788 -3.689571 -23.406930 -12.303028 -37.686142 72.202285 7.264395 -1.498284 -32.522441 -15.134946 19.401098 0.000000 0.000000 0.000000 -9.548644 -36.590382 -3.171867 -0.816111 -1.435772 -1.363635 19.639736 7.076039 -5.167650 1.350331 1.470707 -1.291532 0.000000 0.000000 0.000000 0.950888 1.025894 -1.325609 3.318194 2.702238 -1.986014 0.000000 0.000000 0.000000 1.352692 1.122623 -1.066980 1.781291 1.550022 -7.389829 -62.352811 1.269966 -46.238437 -179.858415 -72.382096 179.394003 0.000000 0.000000 0.000000 1.395874 1.216908 -1.497224 0.732474 13.326555 -7.402079 -50.768663 22.649642 81.581986 -176.863787 66.941776 177.756848 0.000000 0.000000 0.000000 
2.348463 78.007607 38.617825 0.000000 0.000000 0.000000 -6.590382 -35.823038 -2.139995 -49.725188 -1.654915 26.990964 54.739489 -9.483946 3.583599 -4.211782 -8.657040 -31.188788 0.000000 0.000000 0.000000 -7.379013 -35.045434 -2.683741 -26.847057 -13.799800 -35.845215 69.690080 5.817052 0.806769 -27.804100 -14.585177 21.297134 0.000000 0.000000 0.000000 -6.382799 -35.928332 -2.226688 -0.926594 -0.933734 -1.617397 19.619066 6.849470 -5.322112 1.435901 1.376850 -0.928571 0.000000 0.000000 0.000000 0.933957 0.935091 -0.980381 3.081723 2.728517 -2.190155 0.000000 0.000000 0.000000 1.412729 1.023633 -0.619787 1.666182 1.374011 -7.534653 -64.513493 0.403526 -46.606916 178.725205 -73.757901 177.881362 0.000000 0.000000 0.000000 1.470060 1.111272 -1.102120 0.500696 12.761062 -7.589678 -52.251333 22.263609 81.769788 -177.542325 67.007885 177.923491 0.000000 0.000000 0.000000 
2.110138 79.841904 34.263020 0.000000 0.000000 0.000000 -4.504289 -35.772098 -1.741467 -49.899760 0.700147 26.230314 59.975809 -10.619464 2.763638 -6.336063 -9.980877 -31.940499 0.000000 0.000000 0.000000 -4.948716 -35.571372 -2.200627 -30.565445 -14.652052 -33.487584 66.577057 4.546953 2.785629 -21.319110 -12.516514 23.777907 0.000000 0.000000 0.000000 -3.591418 -36.275585 -1.658255 -1.151611 -0.855467 -1.499680 19.496597 6.508729 -5.677074 1.450672 1.372989 -0.473627 0.000000 0.000000 0.000000 0.801076 0.874456 -0.514550 2.875974 2.756488 -2.343177 0.000000 0.000000 0.000000 1.329698 0.973501 -0.084336 1.536587 1.167866 -7.668868 -66.801224 -0.230496 -46.605868 177.543309 -74.662082 176.599500 0.000000 0.000000 0.000000 1.391637 1.071400 -0.603460 0.360296 12.515114 -7.479119 -53.090080 22.330752 81.975855 -178.078154 66.884559 177.966986 0.000000 0.000000 0.000000 
1.983606 81.690170 29.926836 0.000000 0.000000 0.000000 -2.727761 -37.785843 -1.750155 -47.287780 2.887683 24.532967 62.770934 -11.218537 2.632175 -8.942639 -10.223098 -30.677327 0.000000 0.000000 0.000000 -2.809867 -37.647422 -2.109625 -33.283403 -15.158775 -30.583094 62.486634 3.078579 4.140100 -15.679821 -10.056707 25.338523 0.000000 0.000000 0.000000 -1.497105 -38.045574 -1.475830 -1.200468 -0.947159 -1.096566 19.023629 6.223996 -6.008067 1.372993 1.438246 -0.059177 0.000000 0.000000 0.000000 0.591948 0.894228 -0.081342 2.730235 2.782672 -2.405125 0.000000 0.000000 0.000000 1.145319 0.981380 0.350022 1.410389 1.024242 -7.597470 -68.896309 -0.797131 -46.242706 176.999093 -74.549336 175.947831 0.000000 0.000000 0.000000 1.252032 1.105898 -0.162006 0.283793 12.511302 -7.228635 -53.515331 22.722836 82.322030 -178.370377 66.529410 177.937288 0.000000 0.000000 0.000000 
1.930431 83.410904 26.090240 0.000000 0.000000 0.000000 -1.290777 -41.562401 -2.027068 -42.259159 4.371155 21.833775 62.970526 -10.904478 3.059938 -12.329411 -9.016499 -26.812823 0.000000 0.000000 0.000000 -1.296199 -41.039765 -2.357053 -34.614354 -15.337972 -27.873577 58.658716 1.205607 4.718555 -12.283614 -8.403964 24.970106 0.000000 0.000000 0.000000 -0.357761 -40.856088 -1.660290 -1.398010 -1.109048 -0.434459 18.202813 6.036936 -6.169901 1.251570 1.496988 0.220310 0.000000 0.000000 0.000000 0.333159 0.938333 0.217254 2.655735 2.811709 -2.371162 0.000000 0.000000 0.000000 0.955172 0.979692 0.584227 1.294312 0.948381 -7.373740 -70.728371 -1.500805 -45.712735 177.065305 -73.859944 175.943597 0.000000 0.000000 0.000000 1.061842 1.160761 0.126549 0.285850 12.608660 -6.998487 -53.979716 23.131084 82.894120 -178.555160 66.062382 177.873480 0.000000 0.000000 0.000000 
1.940453 84.646996 23.214869 0.000000 0.000000 0.000000 -0.528333 -45.759791 -2.481510 -36.728594 5.434642 18.972437 61.927857 -9.619064 3.583743 -16.650983 -6.684377 -20.785060 0.000000 0.000000 0.000000 -0.617812 -44.929702 -2.850709 -34.746620 -15.129695 -26.270591 56.432758 -0.869106 4.583251 -10.466119 -7.813447 23.024349 0.000000 0.000000 0.000000 -0.018830 -44.137126 -2.074298 -1.688360 -1.317488 -0.133428 17.214112 5.976129 -6.127562 1.063615 1.493694 0.353415 0.000000 0.000000 0.000000 0.089958 0.927489 0.351168 2.629454 2.853673 -2.255107 0.000000 0.000000 0.000000 0.786095 0.930400 0.618546 1.211519 0.957420 -7.093528 -72.313269 -2.362269 -45.266222 177.487137 -73.400027 176.397203 0.000000 0.000000 0.000000 0.867291 1.163972 0.249251 0.357015 12.573058 -6.864226 -54.662670 23.269592 83.555166 -178.677448 65.794283 177.773923 0.000000 0.000000 0.000000 
1.922093 85.036697 20.950794 0.000000 0.000000 0.000000 -0.690544 -49.365619 -3.067123 -32.677613 6.115272 16.768253 61.431944 -7.754596 3.896148 -21.906824 -4.255218 -14.086908 0.000000 0.000000 0.000000 -0.675679 -48.174608 -3.337789 -34.173748 -14.124625 -26.115961 56.486979 -2.720700 3.801877 -9.352807 -7.838126 20.377699 0.000000 0.000000 0.000000 -0.532883 -47.062052 -2.629651 -1.703744 -1.105055 -0.080078 16.372295 5.970177 -6.007486 0.869086 1.405029 0.386042 0.000000 0.000000 0.000000 -0.101908 0.864829 0.368085 2.628157 2.900363 -2.082032 0.000000 0.000000 0.000000 0.644955 0.831887 0.555571 1.152697 1.040596 -6.835352 -73.721565 -3.224648 -45.262222 178.031941 -73.735116 177.092462 0.000000 0.000000 0.000000 0.672853 1.070905 0.256035 0.465024 12.380023 -6.675713 -55.403230 22.946198 83.903164 -178.663856 65.908942 177.581640 0.000000 0.000000 0.000000 
